<svg xmlns="http://www.w3.org/2000/svg" width="29" height="21" viewBox="0 0 29 21">
    <g fill="none">
        <path fill="#E50009" d="M23.9.028H5.055C2.267.028 0 2.296 0 5.084v10.778c0 2.787 2.267 5.055 5.054 5.055h18.847c2.787 0 5.054-2.268 5.054-5.055V5.084c0-2.788-2.267-5.056-5.054-5.056z"/>
        <path fill="#FFF" d="M19.618 9.29l-6.3-4.15c-.261-.172-.596-.187-.871-.039-.275.149-.447.436-.447.748v8.302c0 .312.172.6.447.748.126.067.265.101.403.101.163 0 .326-.047.468-.14l6.3-4.152c.238-.157.382-.423.382-.709 0-.285-.144-.551-.382-.709z"/>
    </g>
</svg>
