<svg xmlns="http://www.w3.org/2000/svg" width="66" height="66" viewBox="0 0 66 66">
    <defs>
        <linearGradient id="prefix__a" x1="8.743%" x2="80.866%" y1="0%" y2="96.162%">
            <stop offset="0%" stop-color="#FFC0E9"/>
            <stop offset="100%" stop-color="#DE91C1"/>
        </linearGradient>
    </defs>
    <g fill="none" fill-rule="evenodd">
        <rect width="66" height="66" fill="url(#prefix__a)" rx="4"/>
        <path fill="#FFF" fill-rule="nonzero" d="M25.922 30.93c.899 0 1.63.732 1.63 1.63 0 .898-.731 1.629-1.63 1.629-.898 0-1.629-.73-1.629-1.63 0-.897.731-1.628 1.63-1.628zm0 1.206c-.234 0-.424.19-.424.424 0 .234.19.424.424.424.234 0 .424-.19.424-.424 0-.234-.19-.424-.424-.424zm6.638-7.843c.898 0 1.629.731 1.629 1.63 0 .898-.73 1.628-1.63 1.628-.897 0-1.628-.73-1.628-1.629 0-.898.73-1.629 1.629-1.629zm0 1.205c-.234 0-.424.19-.424.424 0 .234.19.424.424.424.234 0 .424-.19.424-.424 0-.233-.19-.424-.424-.424zm20.735-3.222c0-.577-.235-1.1-.613-1.48-.335-2.342-1.466-4.5-3.207-6.099-1.811-1.663-4.173-2.62-6.651-2.692-2.227-.066-4.365.57-6.184 1.839l-.018.012c-.284.198-.611.33-.946.382l-4.863.763c-1.353.213-2.335 1.36-2.335 2.729v3.944h-.422c-.252-.73-.943-1.256-1.757-1.256s-1.505.526-1.756 1.256h-1.555c-.725 0-1.314.59-1.314 1.314v1.555c-.73.25-1.256.942-1.256 1.756 0 .814.526 1.506 1.256 1.757v.422h-3.945c-1.368 0-2.515.982-2.728 2.335l-.763 4.862c-.052.335-.184.662-.38.946l-.015.019c-1.268 1.819-1.904 3.957-1.838 6.184.072 2.478 1.029 4.84 2.692 6.651 1.599 1.741 3.757 2.872 6.098 3.207.38.378.904.613 1.481.613.577 0 1.1-.234 1.48-.612 5.03-.725 8.796-5.056 8.796-10.17 0-2.41-1.163-5.024-2.39-6.692.078-.217.104-.452.067-.688l-.678-4.32c-.212-1.353-1.36-2.335-2.728-2.335h-3.944v-.422c.73-.251 1.256-.943 1.256-1.757 0-.813-.527-1.505-1.256-1.756v-1.555c0-.06.048-.11.109-.11h1.554c.252.73.943 1.257 1.757 1.257s1.505-.527 1.756-1.256h.423v3.944c0 1.368.982 2.516 2.335 2.728l4.32.678c.073.011.145.017.217.017.163 0 .322-.03.472-.084 1.668 1.227 4.28 2.39 6.692 2.39 5.113 0 9.444-3.765 10.169-8.796.378-.38.612-.903.612-1.48zM28.86 42.514c0 3.63-2.954 6.584-6.584 6.584-3.63 0-6.583-2.954-6.583-6.584 0-3.63 2.953-6.584 6.583-6.584 3.63 0 6.584 2.954 6.584 6.584zm-6.584 9.576c-.493 0-.893-.401-.893-.894s.4-.894.893-.894.894.401.894.894-.401.894-.894.894zm2.093-.75c.004-.048.006-.096.006-.144 0-.404-.115-.782-.314-1.102 3.437-.81 6.004-3.9 6.004-7.58 0-2.48-1.166-4.69-2.977-6.118.47.081.936.175 1.379.286.128.037.26.056.39.056.148 0 .293-.024.43-.069 1.044 1.475 2.06 3.783 2.06 5.845 0 4.242-2.937 7.874-6.978 8.825zM28.361 31l.677 4.319c.01.058-.005.108-.045.151-.048.055-.118.077-.193.054l-.028-.008c-2.163-.543-6.299-.79-6.496-.79-4.294 0-7.788 3.493-7.788 7.788 0 3.68 2.567 6.77 6.003 7.58-.198.32-.314.698-.314 1.102 0 .05.003.098.006.146-1.761-.412-3.368-1.342-4.599-2.682-1.467-1.598-2.31-3.683-2.375-5.871-.058-1.963.501-3.847 1.616-5.45l.01-.014c.306-.436.511-.942.594-1.463L16.19 31c.12-.763.767-1.317 1.538-1.317h9.094c.771 0 1.418.554 1.538 1.317zm-6.085-4.047c-.36 0-.653-.293-.653-.654 0-.36.293-.654.653-.654.36 0 .654.294.654.654 0 .36-.293.654-.654.654zM26.3 22.93c-.36 0-.654-.293-.654-.654 0-.36.294-.653.654-.653.36 0 .654.293.654.653 0 .36-.293.654-.654.654zm25.79-.654c0 .493-.4.894-.893.894s-.894-.4-.894-.894c0-.493.401-.893.894-.893s.894.4.894.893zm-16.77 6.762L31 28.361c-.762-.12-1.316-.767-1.316-1.538v-9.094c0-.77.554-1.418 1.317-1.538l4.863-.763c.52-.082 1.026-.287 1.463-.593l.012-.01c1.604-1.115 3.489-1.674 5.45-1.616 2.19.064 4.274.908 5.872 2.375 1.34 1.23 2.27 2.838 2.682 4.6-.048-.004-.097-.007-.146-.007-.404 0-.782.116-1.102.315-.81-3.437-3.9-6.004-7.58-6.004-4.295 0-7.789 3.493-7.789 7.788 0 .197.248 4.333.791 6.496l.008.028c.006.02.01.04.01.058 0 .05-.024.1-.066.137-.041.038-.092.052-.149.043zm.611-6.762c0-3.63 2.954-6.583 6.584-6.583 3.63 0 6.584 2.953 6.584 6.583 0 3.63-2.954 6.584-6.584 6.584-3.63 0-6.584-2.954-6.584-6.584zm6.584 9.071c-2.062 0-4.37-1.016-5.845-2.06.045-.137.069-.282.069-.43 0-.13-.019-.262-.056-.39-.11-.443-.205-.91-.286-1.38 1.427 1.812 3.638 2.978 6.118 2.978 3.68 0 6.77-2.567 7.58-6.004.32.199.698.314 1.102.314.048 0 .096-.002.144-.006-.952 4.04-4.584 6.978-8.826 6.978z"/>
    </g>
</svg>
