<svg xmlns="http://www.w3.org/2000/svg" width="38" height="38" viewBox="0 0 38 38">
    <g fill="#202020">
        <path d="M37.287 8.845c.583-.569.79-1.404.537-2.178-.251-.775-.909-1.33-1.715-1.446l-3.252-.473c-.33-.048-.615-.255-.762-.554L30.64 1.247C30.28.517 29.55.063 28.735.063c-.814 0-1.544.454-1.905 1.184l-1.454 2.947c-.148.299-.433.506-.763.554l-3.252.473c-.806.117-1.463.67-1.715 1.446-.252.775-.046 1.61.538 2.178l2.353 2.293c.239.233.347.568.291.897l-.555 3.238c-.138.803.186 1.6.845 2.079.372.27.808.408 1.247.408.338 0 .677-.082.99-.246l2.91-1.53c.294-.155.647-.155.942 0l2.908 1.53c.721.379 1.579.317 2.238-.162s.983-1.275.845-2.078l-.106-.62c-.052-.303-.34-.507-.642-.454-.303.052-.506.339-.454.642l.106.62c.067.388-.084.758-.403.99-.319.232-.718.26-1.066.077L29.724 15c-.62-.326-1.358-.326-1.977 0l-2.909 1.53c-.349.183-.747.154-1.066-.078-.32-.232-.47-.602-.403-.99l.555-3.239c.118-.69-.11-1.393-.61-1.88L20.96 8.048c-.282-.275-.378-.664-.256-1.038.122-.375.427-.633.817-.69l3.252-.472c.692-.1 1.29-.535 1.6-1.163l1.454-2.946c.175-.354.514-.565.908-.565s.734.211.908.565l1.454 2.946c.31.628.908 1.062 1.6 1.163l3.252.472c.39.057.696.315.818.69.121.374.026.762-.257 1.038l-2.353 2.293c-.5.488-.73 1.192-.61 1.88l.018.109c.052.302.339.506.642.454.302-.052.506-.34.454-.642l-.019-.108c-.056-.329.053-.664.292-.896l2.353-2.294z"/>
        <path d="M30.564 24.072c.394-.457.633-1.051.633-1.7 0-1.44-1.17-2.61-2.609-2.61l-8.464-.01c0-.003-.094-.275-.154-.402v-.002c-.13-.275-.177-.575-.139-.867.124-.95.155-1.936.18-2.728.063-2.032-.343-3.516-1.24-4.537-.903-1.026-2.2-1.612-3.564-1.612h-.03c-.767.005-1.39.639-1.39 1.413v2.47c0 1.572-.254 3.759-1.467 5.252-1.286 1.584-2.396 1.57-4.235 1.548l-.191-.003v-.667c0-1.107-.9-2.007-2.007-2.007h-3.88C.901 17.61 0 18.51 0 19.617v5.584c0 .307.249.556.556.556.307 0 .556-.249.556-.556v-5.584c0-.494.402-.895.895-.895h3.88c.493 0 .895.401.895.895V35.86c0 .493-.402.895-.895.895h-3.88c-.493 0-.895-.402-.895-.895v-8.122c0-.307-.249-.556-.556-.556-.307 0-.556.25-.556.556v8.122c0 1.107.9 2.007 2.007 2.007h3.88c1.106 0 2.007-.9 2.007-2.007v-.84h.752c.363 0 .724.127 1.013.358.075.06.163.134.264.22.695.594 1.99 1.7 3.842 1.7h13.65c1.44 0 2.61-1.17 2.61-2.61 0-.62-.219-1.192-.583-1.64 1.02-.355 1.755-1.326 1.755-2.465 0-.65-.239-1.244-.633-1.701.938-.396 1.597-1.325 1.597-2.405 0-1.08-.66-2.009-1.597-2.405zm-6.722-3.197h4.746c.826 0 1.497.671 1.497 1.496 0 .826-.671 1.497-1.497 1.497h-4.746c-.826 0-1.497-.671-1.497-1.497 0-.825.671-1.496 1.497-1.496zm-3.308 15.31h-6.769c-1.442 0-2.452-.862-3.12-1.432-.104-.09-.203-.174-.293-.245-.486-.387-1.092-.6-1.706-.6h-.752V21.397l.177.002c1.949.023 3.488.043 5.113-1.959.783-.964 1.715-2.78 1.715-5.953v-2.47c0-.165.128-.3.285-.3h.022c1.03 0 2.049.46 2.73 1.234.702.799 1.017 2.031.963 3.768-.024.767-.054 1.723-.17 2.618-.067.503.014 1.016.233 1.483l.004.008.005.013.001.003c.178.417.314.871.335 1.328.026.57-.089 1.142-.342 1.706-.006.012-.532 1.172-1.981 1.815-.28.124-.407.453-.283.734.43.97 2.03-.49 2.424-.898.335-.347.659-.753.855-1.198.325-.721.472-1.465.438-2.21-.004-.083-.012-.169-.022-.257h1.318c-.303.426-.481.946-.481 1.507 0 1.08.66 2.01 1.597 2.405-.394.457-.633 1.052-.633 1.701 0 .65.24 1.244.633 1.701-.937.396-1.597 1.325-1.597 2.405 0 .621.219 1.192.582 1.64-1.02.355-1.755 1.326-1.755 2.466 0 .556.176 1.072.474 1.496zm6.882 0h-4.75c-.824-.001-1.493-.672-1.493-1.496 0-.826.671-1.497 1.496-1.497h4.747c.825 0 1.497.671 1.497 1.497 0 .825-.672 1.496-1.497 1.496zm1.172-4.105h-4.746c-.826 0-1.497-.672-1.497-1.497 0-.825.671-1.497 1.497-1.497h4.746c.826 0 1.497.672 1.497 1.497 0 .825-.672 1.497-1.497 1.497zm.964-4.106h-4.746c-.825 0-1.497-.672-1.497-1.497 0-.825.672-1.497 1.497-1.497h4.746c.826 0 1.497.672 1.497 1.497 0 .825-.671 1.497-1.497 1.497z"/>
    </g>
</svg>
