<svg xmlns="http://www.w3.org/2000/svg" width="24" height="21" viewBox="0 0 24 21">
    <path fill="#2B2B2B" stroke="#2B2B2B" stroke-width=".5" d="M21.064 2.805c-1.142-1.143-2.656-1.768-4.27-1.768-1.616 0-3.133.63-4.276 1.772l-.597.597-.606-.606c-1.143-1.143-2.666-1.777-4.28-1.777-1.611 0-3.129.63-4.267 1.768C1.625 3.934.995 5.45 1 7.067c0 1.615.634 3.128 1.777 4.27l8.69 8.69c.12.121.283.186.44.186.157 0 .32-.06.44-.18l8.708-8.677c1.143-1.143 1.773-2.66 1.773-4.276.004-1.615-.62-3.132-1.764-4.275zm-.888 7.667l-8.27 8.237-8.25-8.25C2.75 9.55 2.25 8.348 2.25 7.066s.496-2.485 1.403-3.388c.902-.902 2.105-1.402 3.382-1.402 1.282 0 2.49.5 3.397 1.407l1.045 1.046c.246.245.64.245.884 0l1.037-1.037c.907-.907 2.115-1.407 3.392-1.407 1.277 0 2.48.5 3.387 1.403.907.907 1.402 2.11 1.402 3.391.005 1.282-.495 2.485-1.402 3.392z"/>
</svg>
