<svg xmlns="http://www.w3.org/2000/svg" width="66" height="66" viewBox="0 0 66 66">
    <defs>
        <linearGradient id="prefix__a" x1="8.743%" x2="80.866%" y1="0%" y2="96.162%">
            <stop offset="0%" stop-color="#FFC0E9"/>
            <stop offset="100%" stop-color="#DE91C1"/>
        </linearGradient>
    </defs>
    <g fill="none" fill-rule="evenodd">
        <rect width="66" height="66" fill="url(#prefix__a)" rx="4"/>
        <path fill="#FFF" fill-rule="nonzero" d="M31.1 41.2v3.594h-1.438V41.2H31.1zm2.876-.72v4.314h-1.438V40.48h1.438zm0-3.595v2.157h-1.438v-2.157h1.438zM31.819 11c-2.779.003-5.03 2.255-5.034 5.033v3.595h-7.19c-.373 0-.684.285-.716.657L16.003 53.36c-.018.201.05.4.186.548.136.149.328.234.53.234h31.637c.202 0 .394-.085.53-.234.136-.148.204-.347.187-.548l-2.877-33.075c-.032-.372-.343-.657-.716-.657h-8.628v-3.595c-.003-2.778-2.255-5.03-5.033-5.033zm-3.596 5.033c0-1.985 1.61-3.595 3.596-3.595 1.985 0 3.595 1.61 3.595 3.595v3.595h-7.19v-3.595zm4.315 15.1c0 .397-.322.719-.72.719-.397 0-.718-.322-.718-.72 0-.396.321-.718.719-.718.397 0 .718.322.719.719zM31.1 29.099c-.99.35-1.585 1.363-1.407 2.399.177 1.035 1.075 1.792 2.126 1.792 1.05 0 1.948-.757 2.126-1.792.177-1.036-.417-2.048-1.407-2.399V27.61c1.672.344 2.873 1.815 2.876 3.523v15.1h-7.19v-15.1c.002-1.708 1.203-3.18 2.876-3.523v1.49zm16.472 23.605h-4.184l2.092-24.057 2.092 24.057zm-2.876-31.638l-2.751 31.638H17.503l2.751-31.638h6.531v3.596h1.438v-3.596H31.1v5.086c-2.475.36-4.311 2.48-4.315 4.98v15.82c0 .396.322.718.72.718h8.628c.397 0 .719-.322.719-.719V31.133c-.004-2.5-1.84-4.621-4.314-4.981v-5.086h2.876v3.596h1.438v-3.596h7.844z"/>
    </g>
</svg>
