<?xml version="1.0" encoding="UTF-8"?>
<svg width="50px" height="33px" viewBox="0 0 50 33" version="1.1" xmlns="http://www.w3.org/2000/svg" xmlns:xlink="http://www.w3.org/1999/xlink">
    <title>81CA2D36-AE27-4F16-AB57-C39676FEB841</title>
    <g id="Design" stroke="none" stroke-width="1" fill="none" fill-rule="evenodd">
        <g id="product-page-3-copy-2" transform="translate(-1189.000000, -1053.000000)" fill="#BDBDBD" fill-rule="nonzero">
            <g id="Group-45" transform="translate(1112.000000, 1053.000000)">
                <g id="mastercard-(1)" transform="translate(77.000000, 0.000000)">
                    <path d="M13.1973505,14.7414695 C12.2696516,14.7414695 11.5585326,15.0395958 11.5585326,15.0395958 L11.36212,16.2057958 C11.36212,16.2057958 11.9487274,15.9672947 12.8369684,15.9672947 C13.3411526,15.9672947 13.7094263,16.0234126 13.7094263,16.4328979 C13.7094263,16.6819211 13.6647074,16.7739895 13.6647074,16.7739895 C13.6647074,16.7739895 13.2674979,16.7415463 13.0833611,16.7415463 C11.9127768,16.7415463 10.6834442,17.2395926 10.6834442,18.7468842 C10.6834442,19.9341284 11.4892621,20.2050726 11.9899389,20.2050726 C12.94482,20.2050726 13.3569358,19.5860221 13.37798,19.5842684 L13.3332611,20.1016053 L14.5248895,20.1016053 L15.0562558,16.3750263 C15.0553789,14.7923263 13.6761063,14.7414695 13.1973505,14.7414695 Z M12.5291968,19.0713158 C12.1091895,19.0713158 11.9995842,18.7512684 11.9995842,18.5601168 C11.9995842,18.1900895 12.2003811,17.7446537 13.1920895,17.7446537 C13.4235758,17.7455305 13.4481274,17.7692053 13.4867084,17.77622 C13.5130137,18.0041989 13.34466,19.0713158 12.5291968,19.0713158 Z" id="Shape"></path>
                    <path d="M17.5008916,15.9909695 C17.6911663,15.9909695 18.4250832,16.0514716 18.4250832,16.0514716 L18.5960674,14.8572126 C18.5960674,14.8572126 18.1208189,14.7511147 17.3474442,14.7511147 C16.3460905,14.7511147 15.3307074,15.1509547 15.3307074,16.5179516 C15.3307074,18.0682084 17.0247663,17.9103768 17.0247663,18.5645011 C17.0247663,18.9994147 16.5512716,19.0353653 16.1865053,19.0353653 C15.5543021,19.0353653 14.9861084,18.8196621 14.9843547,18.8284305 L14.8037253,20.0130442 C14.8361684,20.0218126 15.1869053,20.1778905 16.3224158,20.1778905 C16.62668,20.1778905 18.3689653,20.2568063 18.3689653,18.4584032 C18.3689653,16.77662 16.7564526,17.1089432 16.7564526,16.4328979 C16.7564526,16.0961905 17.0186284,15.9909695 17.5008916,15.9909695 Z" id="Path"></path>
                    <path d="M20.3479979,16.14354 L21.0643779,16.14354 L21.2371158,14.8703653 L20.5619474,14.8703653 L20.6996116,14.0812074 L19.3466442,14.0812074 C19.3168316,14.1101432 18.5478411,18.5320579 18.5478411,19.0686853 C18.5478411,19.8674884 18.9959074,20.2217326 19.6263568,20.2155947 C20.1200189,20.2120874 20.5049526,20.0753 20.6408632,20.0375958 L20.8100937,18.8871789 C20.7171484,18.8871789 20.5812379,18.9275137 20.4611105,18.9275137 C19.9902463,18.9275137 19.9385126,18.67586 19.9683253,18.4908463 L20.3479979,16.14354 Z" id="Path"></path>
                    <path d="M26.0185358,8.75702211 L23.6037126,8.75702211 C23.2792811,9.19544316 22.97414,9.66192316 22.6979347,10.1178811 L27.00586,10.1178811 C26.7068568,9.64263263 26.3762874,9.18842842 26.0185358,8.75702211 Z" id="Path"></path>
                    <path d="M44.8601189,24.0649316 C44.8338137,24.0254737 44.8118926,23.9956611 44.7943558,23.9772474 C44.7847105,23.9684789 44.7724347,23.9588337 44.7566516,23.9544495 C44.7943558,23.9518189 44.8259221,23.9377895 44.84872,23.9141147 C44.8706411,23.89044 44.8829168,23.8623811 44.8829168,23.8299379 C44.8829168,23.80714 44.8759021,23.7852189 44.8627495,23.7650516 C44.8495968,23.7448842 44.8303063,23.7299779 44.8066316,23.7220863 C44.7847105,23.7133179 44.7470063,23.7089337 44.6952726,23.7089337 L44.5427021,23.7089337 L44.5427021,24.1517389 L44.6146032,24.1517389 L44.6146032,23.9640947 L44.6558147,23.9640947 C44.6803663,23.9640947 44.7005337,23.9693558 44.7119326,23.9798779 C44.7303463,23.9947842 44.7566516,24.0289811 44.7873411,24.0824684 L44.8259221,24.1526158 L44.9144832,24.1526158 L44.8601189,24.0649316 Z M44.7005337,23.9053463 L44.6128495,23.9053463 L44.6128495,23.7720663 L44.6952726,23.7720663 C44.7294695,23.7720663 44.7522674,23.7746968 44.76542,23.7799579 C44.7794495,23.7852189 44.7882179,23.7931105 44.7961095,23.8027558 C44.8031242,23.8132779 44.8066316,23.8246768 44.8066316,23.8369526 C44.8066316,23.85712 44.7996168,23.8746568 44.7847105,23.8869326 C44.7698042,23.8983316 44.7408684,23.9053463 44.7005337,23.9053463 Z" id="Shape"></path>
                    <path d="M27.7380232,11.4533116 L21.9447274,11.4533116 C21.5747,12.1539084 21.3291842,12.6835211 21.2599137,12.8150474 L28.2869263,12.8150474 C28.1282179,12.3468137 27.9458347,11.8934863 27.7380232,11.4533116 Z" id="Path"></path>
                    <polygon id="Path" points="9.02533579 13.6638305 7.69165895 17.6183884 7.62238842 13.6638305 5.64774 13.6638305 4.56571684 20.1077432 5.87133474 20.1077432 6.69468947 15.2500379 6.81569368 20.1077432 7.74777684 20.1077432 9.48655474 15.2500379 8.71581053 20.1077432 10.1012211 20.1077432 11.1683379 13.6638305"></polygon>
                    <path d="M35.1341863,14.7414695 C34.2047337,14.7414695 33.4944916,15.0395958 33.4944916,15.0395958 L33.2972021,16.2057958 C33.2972021,16.2057958 33.8846863,15.9672947 34.7720505,15.9672947 C35.2762347,15.9672947 35.6453853,16.0234126 35.6453853,16.4328979 C35.6453853,16.6819211 35.5989126,16.7739895 35.5989126,16.7739895 C35.5989126,16.7739895 35.20258,16.7415463 35.0166895,16.7415463 C33.8469821,16.7415463 32.6185263,17.2395926 32.6185263,18.7468842 C32.6185263,19.9341284 33.4252211,20.2050726 33.9250211,20.2050726 C34.8790253,20.2050726 35.2911411,19.5860221 35.3130621,19.5842684 L35.2683432,20.1016053 L36.4590947,20.1016053 L36.9904648,16.3750263 C36.9930916,14.7923263 35.6129421,14.7414695 35.1341863,14.7414695 Z M34.4677863,19.0713158 C34.0469021,19.0713158 33.9381737,18.7512684 33.9381737,18.5601168 C33.9381737,18.1900895 34.1389705,17.7446537 35.1306789,17.7446537 C35.3612884,17.7455305 35.38584,17.7692053 35.4252979,17.77622 C35.4507263,18.0041989 35.2814958,19.0713158 34.4677863,19.0713158 Z" id="Shape"></path>
                    <path d="M44.9030842,19.5141211 C44.8671337,19.4474811 44.8145232,19.3966242 44.74876,19.3615505 C44.6838737,19.3256 44.6172337,19.3080632 44.5470863,19.3080632 C44.4795695,19.30894 44.4120526,19.3264768 44.3454126,19.3615505 C44.2796495,19.3966242 44.2287926,19.4474811 44.1919653,19.5141211 C44.1551379,19.5798842 44.1367242,19.6482779 44.1367242,19.7193021 C44.1367242,19.7903263 44.1551379,19.8578432 44.1919653,19.9227295 C44.2279158,19.9876158 44.2787726,20.0393495 44.3436589,20.0761768 C44.4094221,20.1121274 44.4769389,20.1305411 44.5470863,20.1305411 C44.6189874,20.1305411 44.6873811,20.1121274 44.7513905,20.0761768 C44.8162768,20.0393495 44.8671337,19.9876158 44.9030842,19.9227295 C44.9407884,19.8578432 44.9574484,19.7903263 44.9574484,19.7193021 C44.9574484,19.6465242 44.9399116,19.5781305 44.9030842,19.5141211 Z M44.8460895,19.8885326 C44.8162768,19.9428968 44.7741884,19.9841084 44.7189474,20.0165516 C44.6645832,20.0463642 44.6084653,20.0621474 44.5497168,20.0621474 C44.4900916,20.0621474 44.4330968,20.0463642 44.3796095,20.0165516 C44.3243684,19.9858621 44.2831568,19.9437737 44.2515905,19.8885326 C44.2200242,19.8332916 44.2059947,19.7771737 44.2059947,19.7184253 C44.2059947,19.6596768 44.2209011,19.6026821 44.2533442,19.5474411 C44.2840337,19.4930768 44.3252453,19.4509884 44.3813632,19.4202989 C44.4374811,19.3896095 44.4927221,19.3764568 44.5497168,19.3764568 C44.6067116,19.3764568 44.6628295,19.3904863 44.7163168,19.4202989 C44.7724347,19.4509884 44.8136463,19.4922 44.8443358,19.5474411 C44.8750253,19.6026821 44.8916853,19.6596768 44.8916853,19.7184253 C44.8916853,19.7771737 44.8767789,19.8341684 44.8460895,19.8885326 Z" id="Shape"></path>
                    <path d="M44.6865042,19.85872 C44.6610758,19.8175084 44.6382779,19.7885726 44.6216179,19.7710358 C44.6110958,19.7613905 44.5996968,19.7534989 44.5839137,19.7482379 C44.6216179,19.7456074 44.6523074,19.7315779 44.6751053,19.7079032 C44.6970263,19.6851053 44.7101789,19.6552926 44.7101789,19.6237263 C44.7101789,19.6018053 44.7031642,19.5790074 44.6891347,19.55884 C44.6751053,19.5395495 44.6566916,19.5246432 44.6347705,19.5158747 C44.6128495,19.5071063 44.5742684,19.5027221 44.5225347,19.5027221 L44.3682105,19.5027221 L44.3682105,19.9446505 L44.4401116,19.9446505 L44.4401116,19.7570063 L44.4813232,19.7570063 C44.5067516,19.7570063 44.5269189,19.7622674 44.5391947,19.7719126 C44.5576084,19.7876958 44.58216,19.8210158 44.6146032,19.8762568 L44.6523074,19.9455274 L44.7408684,19.9455274 L44.6865042,19.85872 Z M44.5286726,19.6965042 L44.4418653,19.6965042 L44.4418653,19.5623474 L44.5225347,19.5623474 C44.5576084,19.5623474 44.5804063,19.5649779 44.5944358,19.5693621 C44.6058347,19.5755 44.6163568,19.5816379 44.6233716,19.5930368 C44.6312632,19.6044358 44.6347705,19.6140811 44.6347705,19.6289874 C44.6347705,19.6482779 44.6268789,19.6649379 44.6137263,19.6772137 C44.5970663,19.69212 44.5698842,19.6965042 44.5286726,19.6965042 Z" id="Shape"></path>
                    <path d="M39.7323463,14.8054789 C39.1264484,14.8054789 38.6766284,15.6323411 38.6766284,15.6323411 L38.7976326,14.8721189 L37.5367337,14.8721189 L36.6923347,20.1173884 L38.0812526,20.1173884 C38.4767084,17.87618 38.5486095,16.0584863 39.4877074,16.3908095 C39.6534305,15.5244895 39.8130158,15.1886589 39.9927684,14.8230158 C39.9927684,14.8238926 39.9085916,14.8054789 39.7323463,14.8054789 Z" id="Path"></path>
                    <path d="M43.2221779,13.6708453 L42.9301895,15.4815242 C42.9301895,15.4815242 42.4216211,14.77742 41.6236947,14.77742 C40.3829632,14.7782968 39.3500432,16.2733126 39.3500432,17.9901695 C39.3500432,19.0993747 39.9015768,20.1857821 41.0274421,20.1857821 C41.8385211,20.1857821 42.2874642,19.6202189 42.2874642,19.6202189 L42.2287158,20.1033589 L43.5448558,20.1033589 L44.5795295,13.6682147 L43.2221779,13.6708453 Z M41.5061979,18.8705189 C41.0186737,18.8705189 40.7906947,18.4619105 40.7906947,17.8200621 C40.7906947,16.7704821 41.2615589,16.0786537 41.8569347,16.0786537 C42.3427053,16.0795305 42.5926053,16.4136074 42.5926053,17.2010116 C42.5926053,17.9156379 42.2392379,18.8705189 41.5061979,18.8705189 Z" id="Shape"></path>
                    <path d="M48.2491137,0.823354737 L1.27492842,0.823354737 C0.569947368,0.823354737 0,1.39417895 0,2.09828316 L0,31.6434779 C0,32.3475821 0.569947368,32.9184063 1.27492842,32.9184063 L48.2491137,32.9184063 C48.9540947,32.9184063 49.5240421,32.3475821 49.5240421,31.6434779 L49.5240421,2.09828316 C49.5240421,1.39417895 48.9540947,0.823354737 48.2491137,0.823354737 Z M45.0775758,24.1289411 C45.0407484,24.1955811 44.9907684,24.2464379 44.9258821,24.2823884 C44.8609958,24.3183389 44.7926021,24.3367526 44.7224547,24.3367526 C44.6505537,24.3367526 44.58216,24.3183389 44.5172737,24.2823884 C44.4532642,24.2464379 44.4024074,24.1955811 44.3647032,24.1289411 C44.3287526,24.0649316 44.3103389,23.9965379 44.3103389,23.9255137 C44.3103389,23.8544895 44.3287526,23.7869726 44.36558,23.7203326 C44.4015305,23.6536926 44.4541411,23.6037126 44.5190274,23.5677621 C44.5847905,23.5335653 44.6514305,23.5151516 44.7215779,23.5151516 C44.7908484,23.5151516 44.8574884,23.5335653 44.9223747,23.5677621 C44.9881379,23.6037126 45.0398716,23.6536926 45.0758221,23.7203326 C45.1126495,23.7869726 45.1301863,23.8553663 45.1301863,23.9255137 C45.1301863,23.9956611 45.1144032,24.0666853 45.0775758,24.1289411 Z M45.9965063,16.8713189 C45.99826,23.89044 40.3110621,29.5828989 33.2910642,29.5846531 C30.0081674,29.5855295 27.0146284,28.3412905 24.7593905,26.2973716 C22.5041526,28.3377832 19.5167516,29.5811453 16.2391158,29.5811453 C9.22350211,29.5811453 3.52928947,23.8878095 3.52928947,16.8713189 C3.52928947,9.88288737 9.17878316,4.20621158 16.1575695,4.16061579 C16.1847516,4.16061579 16.2119337,4.16061579 16.2391158,4.16061579 C19.5167516,4.16061579 22.5050295,5.40397789 24.7602674,7.44438947 C27.0146284,5.40310105 30.00466,4.15886211 33.2849263,4.15798435 C40.3049242,4.15535474 45.9965063,9.84518316 45.99826,16.8651811 C45.9965063,16.8669347 45.9965063,16.8678116 45.9965063,16.8713189 Z" id="Shape"></path>
                    <path d="M23.4581568,24.9075768 C23.8606274,25.4003621 24.2867726,25.8703495 24.7576368,26.2964947 C24.7681589,26.2868495 24.7795579,26.2780811 24.79008,26.2693126 C24.79008,26.2693126 24.7892032,26.2693126 24.7892032,26.2684358 L24.7918337,26.2684358 C25.2548063,25.8466747 25.6870895,25.3924705 26.0825453,24.9075768 L23.4581568,24.9075768 L23.4581568,24.9075768 Z" id="Path"></path>
                    <path d="M25.1890432,17.9314211 C25.1890432,17.9314211 25.3670421,17.0545789 25.3670421,16.6977042 C25.3670421,15.8059558 24.92336,14.7186716 23.4379895,14.7186716 C22.0771305,14.7195484 21.0696389,16.1856284 21.0696389,17.84286 C21.0696389,19.7552526 22.3314147,20.2094568 23.4073,20.2094568 C24.3998853,20.2094568 24.8365526,19.9867389 24.8365526,19.9867389 L25.0750537,18.6819979 C25.0750537,18.6819979 24.3200926,19.0151979 23.6379095,19.0151979 C22.1849821,19.0151979 22.4392663,17.9314211 22.4392663,17.9314211 L25.1890432,17.9314211 L25.1890432,17.9314211 Z M23.4423737,15.9330979 C24.2061032,15.9330979 24.0649316,16.7915263 24.0649316,16.85992 L22.5629011,16.85992 C22.5629011,16.7713589 22.7049495,15.9330979 23.4423737,15.9330979 Z" id="Shape"></path>
                    <path d="M31.5356263,14.8984242 C32.2239474,14.8984242 32.7772347,15.2851116 32.7772347,15.2851116 L32.9981989,13.8514747 C32.9981989,13.8514747 32.1792284,13.5200284 31.4742474,13.5200284 C29.9125916,13.5200284 28.3930242,14.8756263 28.3930242,17.4210989 C28.3930242,19.10902 29.2128716,20.2234863 30.8280147,20.2234863 C31.2839726,20.2234863 32.0117516,20.0384726 32.0117516,20.0384726 L32.25376,18.5618705 C32.25376,18.5618705 31.5908674,18.8941937 31.1349095,18.8941937 C30.1738905,18.8933168 29.7889568,18.1602768 29.7889568,17.3746263 C29.7889568,15.7761432 30.6149421,14.8984242 31.5356263,14.8984242 Z" id="Path"></path>
                    <path d="M21.7614674,22.2375926 C21.9815547,22.7102105 22.2375926,23.1600305 22.5120442,23.5984516 L27.0216432,23.5984516 C27.2952179,23.1617842 27.5416105,22.70758 27.7616979,22.2375926 L21.7614674,22.2375926 Z" id="Path"></path>
                    <path d="M28.3684726,14.8072326 C27.7625747,14.8072326 27.3136316,15.6340947 27.3136316,15.6340947 L27.4355126,14.8738726 L26.1754905,14.8738726 L25.3310916,20.1191421 L26.7200095,20.1191421 C27.1137116,17.8788105 27.1873663,16.06024 28.1264642,16.3925632 C28.2913105,15.5253663 28.4500189,15.1895358 28.6297716,14.8230158 C28.6297716,14.8230158 28.5455947,14.8054789 28.3684726,14.8072326 Z" id="Path"></path>
                </g>
            </g>
        </g>
    </g>
</svg>