<?xml version="1.0" encoding="UTF-8"?>
<svg width="54px" height="19px" viewBox="0 0 54 19" version="1.1" xmlns="http://www.w3.org/2000/svg" xmlns:xlink="http://www.w3.org/1999/xlink">
    <title>128B7E38-CADB-4537-A4DF-873426FA0687</title>
    <g id="Design" stroke="none" stroke-width="1" fill="none" fill-rule="evenodd">
        <g id="product-page-3-copy-2" transform="translate(-1112.000000, -1061.000000)" fill="#BDBDBD" fill-rule="nonzero">
            <g id="Group-45" transform="translate(1112.000000, 1053.000000)">
                <g id="Group" transform="translate(0.000000, 8.000000)">
                    <path d="M3.57457939,3.9479722 L5.57203712,18.266962 L10.4825617,18.266962 L19.6300396,0.537048253 L14.4714478,0.537048253 L10.5859231,8.75858085 C10.035524,9.92527188 9.56092318,10.9825722 9.15264592,11.9507233 C9.07727828,10.9412276 8.99545056,9.95929498 8.89682663,8.95755141 L8.10438975,0.537478925 L0.262279379,0.537478925 L8.42179517,6.99411678 L3.57457939,3.9479722 Z" id="Path"></path>
                    <polygon id="Path" points="23.1537996 18.2665313 26.516919 0.537048253 21.9005435 0.537048253 18.5326868 18.2665313"></polygon>
                    <path d="M25.8618665,17.2217206 C26.9437151,18.0322457 28.8472863,18.5180439 30.9528428,18.5180439 C35.3224431,18.5180439 38.2540289,16.0502921 38.2540289,12.3788115 C38.2540289,10.371879 37.0808777,8.77839177 34.6764348,7.5160915 C33.3245547,6.76241513 32.5092922,6.25379124 32.5092922,5.614243 C32.5092922,5.01603929 33.1397963,4.37046164 34.6256154,4.37046164 C36.0713821,4.37046164 37.1872538,4.93593426 37.3905311,5.04877038 L37.9176739,5.33861278 L39.3927262,1.38676453 L39.0042599,1.17401246 C37.9038924,0.566764635 36.5322013,0.267878118 34.8194179,0.267878118 C30.634576,0.267878118 27.712465,2.71065092 27.712465,6.20813999 C27.712465,8.74652202 29.7086308,10.1552508 31.4593133,11.0988537 C33.1100799,11.9528767 33.4322227,12.441259 33.4322227,12.9963954 C33.4322227,14.0584331 32.2810359,14.4391474 31.2973806,14.4391474 C30.011824,14.4391474 28.6741561,14.0739373 27.6258999,13.4464479 L27.1047865,13.1333492 L25.5435998,16.9805441 L25.8618665,17.2217206 Z" id="Path"></path>
                    <path d="M42.7084716,18.2665313 L44.6921478,13.9339689 L48.6918007,13.9339689 L49.0384918,18.2665313 L53.8348883,18.2665313 L51.7556028,0.53661758 L46.3902884,0.53661758 L37.7604785,18.2665313 L42.7084716,18.2665313 L42.7084716,18.2665313 Z M47.5294164,7.31109153 C47.7141747,6.91185839 47.9041012,6.46180592 48.0888596,5.98720514 C48.12116,6.40969458 48.1551831,6.80246764 48.1797314,7.14485205 L48.4540696,10.1767845 L46.2115594,10.1767845 L47.5294164,7.31109153 Z" id="Shape"></path>
                </g>
            </g>
        </g>
    </g>
</svg>