<?xml version="1.0" encoding="UTF-8"?>
<svg width="77px" height="23px" viewBox="0 0 77 23" version="1.1" xmlns="http://www.w3.org/2000/svg" xmlns:xlink="http://www.w3.org/1999/xlink">
    <title>170A57F8-6432-44CB-AD22-F52ED0CA9256</title>
    <g id="Design" stroke="none" stroke-width="1" fill="none" fill-rule="evenodd">
        <g id="product-page-3-copy-2" transform="translate(-1362.000000, -1061.000000)" fill="#BDBDBD" fill-rule="nonzero">
            <g id="Group-45" transform="translate(1112.000000, 1053.000000)">
                <g id="paypal-logo" transform="translate(250.842105, 8.263158)">
                    <path d="M13.5810316,3.91422316 C13.3330105,3.41667789 12.9406863,3.00631579 12.4536632,2.69816842 C11.9455958,2.38701474 11.3458358,2.16905684 10.6603958,2.03978526 C9.96293053,1.91352 9.15723789,1.8564 8.22377684,1.84738105 L3.91422316,1.85038737 C3.46628211,1.8564 3.02736,2.20513263 2.92213895,2.63804211 L0.0225473684,15.2675747 C-0.0826736842,15.6944716 0.198416842,16.0522232 0.646357895,16.0522232 L2.71019368,16.0522232 C3.15813474,16.0522232 3.60156632,15.7049937 3.70077474,15.2675747 L4.40876211,12.2011326 C4.50346105,11.7742358 4.94538947,11.4179874 5.39784,11.4179874 L5.98858105,11.4179874 C8.51238316,11.4149811 10.4664884,10.8993979 11.8704379,9.86672842 C13.2819032,8.83255579 13.9778653,7.46618526 13.9778653,5.77362947 C13.9763621,5.03257263 13.8546063,4.41026526 13.5810316,3.91422316 Z M9.13018105,8.04039158 C8.50637053,8.49735158 7.63904842,8.72583158 6.52069895,8.72583158 L6.01563789,8.72583158 C5.56619368,8.72583158 5.29111579,8.37108632 5.38882105,7.93817684 L6.00962526,5.25654316 C6.09680842,4.82664 6.54925895,4.47039158 6.99269053,4.47339789 L7.66911158,4.46888842 C8.45826947,4.46888842 9.06103579,4.60567579 9.46388211,4.87023158 C9.86221895,5.13178105 10.0621389,5.54815579 10.0591326,6.09981474 C10.0711579,6.93857684 9.75098526,7.58343158 9.13018105,8.04039158 Z" id="Shape"></path>
                    <polygon id="Path" points="72.4146316 2.83645895 72.28536 2.87554105 72.1124968 2.89959158 71.9005516 2.86652211 71.7923242 2.76130105 71.74272 2.59595368 71.7397137 2.34793263 71.7397137 1.42950316 72.4296632 1.42950316 72.4296632 1.14540632 71.7397137 1.14540632 71.7397137 0.572703158 71.3984968 0.572703158 71.3984968 1.14540632 71.1670105 1.14540632 71.1670105 1.42950316 71.3984968 1.42950316 71.3984968 2.49824842 71.5578316 3.02736 72.0268168 3.19571368 72.2237305 3.17917895 72.4326695 3.13859368 72.4326695 2.83645895"></polygon>
                    <polygon id="Path" points="75.6148547 1.29121263 75.1218189 1.08828632 74.7580547 1.16194105 74.3882779 1.41146526 74.1733263 1.17246316 73.8245937 1.08978947 73.4893895 1.16344421 73.1722232 1.36787368 73.1722232 1.14540632 72.8370189 1.14540632 72.8370189 3.15212211 73.17072 3.15212211 73.17072 1.65347368 73.4518105 1.47910737 73.7313979 1.40996211 73.9598779 1.45054737 74.0726147 1.56629053 74.1222189 1.75869474 74.1387537 2.00671579 74.1387537 3.15362526 74.4739579 3.15362526 74.4739579 1.86992842 74.4679453 1.76320421 74.4619326 1.66549895 74.7475326 1.48361684 75.0301263 1.41296842 75.2510905 1.45355368 75.3713432 1.56929684 75.4134316 1.76320421 75.4359789 2.00821895 75.4359789 3.15512842 75.7726863 3.15512842 75.7726863 1.85189053"></polygon>
                    <path d="M23.53344,5.71951579 C22.7548042,5.28059368 21.5252211,5.06113263 19.8446905,5.06113263 C19.0134442,5.06113263 18.1852042,5.12576842 17.3479453,5.25504 C16.7301474,5.34973895 16.6700211,5.36777684 16.2897221,5.45045053 C15.5050737,5.62181053 15.3818147,6.40495579 15.3818147,6.40495579 L15.1292842,7.44363789 C14.9864842,8.10653053 15.3682863,8.08097684 15.5276211,8.02536 C15.8703411,7.92314526 16.0612421,7.81792421 16.7617137,7.66159579 C17.4306189,7.50977684 18.1356,7.39553684 18.6947747,7.40305263 C19.5200084,7.40305263 20.1513347,7.49023579 20.5722189,7.66760842 C20.9870905,7.84798737 21.1945263,8.15763789 21.1945263,8.60557895 L21.1584505,8.89719158 L20.8608253,9.08057684 C19.6898653,9.15423158 18.8435874,9.26245895 17.8169305,9.41127158 C16.8128211,9.55106526 15.9319705,9.79608 15.1999326,10.1312842 C14.4137811,10.4770105 13.8305558,10.9414863 13.4232,11.5322274 C13.0293726,12.1259747 12.8324589,12.8459874 12.8324589,13.6907621 C12.8324589,14.4859326 13.1180589,15.1428126 13.6727242,15.65088 C14.2303958,16.1499284 14.9669432,16.39344 15.8477937,16.39344 C16.4054653,16.3904337 16.8368716,16.3468421 17.1435158,16.2731874 L18.1431158,15.9289642 L18.9893937,15.4599789 L19.7680295,14.9458989 L19.7785516,14.9609305 L19.7003874,15.2916253 L19.6958779,15.3051537 L19.6958779,15.30816 C19.6117011,15.7110063 19.8552126,16.0417011 20.2475368,16.0807832 L20.2550526,16.0898021 L20.2911284,16.0898021 L21.8739537,16.0898021 L22.1715789,16.0898021 L22.1986358,16.0777768 C22.6105011,16.0296758 22.9968126,15.6989811 23.0870021,15.3051537 L24.5916632,8.79197053 L24.6698274,8.26135579 L24.7059702,7.76381053 C24.7119158,6.84087158 24.3135789,6.15693474 23.53344,5.71951579 Z M20.2054484,13.0429011 L19.8837726,13.4667916 L19.0720674,13.8861726 C18.6902653,14.0409979 18.3280042,14.1191621 17.9928,14.1191621 C17.4847326,14.1191621 17.0863958,14.0455074 16.8173305,13.8951916 L16.4189937,13.1210653 C16.4189937,12.7016842 16.5151958,12.3694863 16.7211284,12.1139495 L17.5959663,11.5186989 C17.9702526,11.3924337 18.4272126,11.2857095 18.9563242,11.2120547 C19.4283158,11.1534316 20.3602737,11.0467074 20.4820295,11.0437011 L20.6248295,11.2947284 C20.5962695,11.4375284 20.3317137,12.5438526 20.2054484,13.0429011 Z" id="Shape"></path>
                    <path d="M61.0191916,5.72853474 C60.2360463,5.28961263 59.0079663,5.06864842 57.3319453,5.06864842 C56.5006989,5.06864842 55.6709558,5.13328421 54.8367032,5.26706526 C54.2174021,5.35725474 54.1557726,5.37679579 53.7739705,5.45796632 C52.9908253,5.62782316 52.8690695,6.41397474 52.8690695,6.41397474 L52.6165389,7.45115368 C52.4752421,8.11404632 52.8480253,8.08398316 53.0223916,8.03287579 C53.3666147,7.93066105 53.5515032,7.82994947 54.2459621,7.66760842 C54.9118611,7.51729263 55.6228547,7.40605895 56.1835326,7.40906526 C57.00576,7.40906526 57.6370863,7.49775158 58.0564674,7.67512421 C58.4743453,7.85550316 58.6787747,8.16816 58.6787747,8.61159158 L58.6472084,8.90170105 L58.3525895,9.08959579 C57.1696042,9.16024421 56.3218232,9.26847158 55.3056884,9.41728421 C54.3045853,9.55707789 53.4207284,9.80058947 52.6871874,10.1372968 C51.9040421,10.4845263 51.3133011,10.9490021 50.9104547,11.5412463 C50.5121179,12.1349937 50.3182105,12.8535032 50.3182105,13.6907621 C50.3182105,14.4919453 50.6008042,15.1488253 51.1629853,15.6538863 C51.7236632,16.1514316 52.4526947,16.4009558 53.3335453,16.4009558 C53.8882105,16.3949432 54.3196168,16.3588674 54.6277642,16.2792 L55.6243579,15.9394863 L56.4781516,15.4705011 L57.2507747,14.9504084 L57.2643032,14.9669432 L57.1936547,15.3006442 L57.1861389,15.3066568 L57.1891453,15.3126695 C57.0959495,15.7155158 57.3409642,16.0492168 57.7377979,16.0852926 L57.7408042,16.0928084 L57.77688,16.0928084 C58.0369263,16.0928084 58.9358147,16.0928084 59.3642147,16.0928084 L59.6558274,16.0928084 L59.6873937,16.0822863 C60.0947495,16.0326821 60.4795579,15.7019874 60.5652379,15.3036505 L62.0744084,8.79948632 L62.1540758,8.26586526 L62.1976717,7.76681684 C62.1991705,6.84688421 61.8053432,6.16595368 61.0191916,5.72853474 Z M57.6987158,13.05192 L57.3635116,13.48032 L56.5593221,13.8966947 C56.17752,14.0500168 55.8137558,14.1296842 55.4845642,14.1296842 C54.9599621,14.1296842 54.5721474,14.0545263 54.3105979,13.9042105 L53.9077516,13.1330905 C53.9077516,12.7122063 54.0054568,12.3830147 54.2023705,12.1229684 C54.4022905,11.8779537 54.7074316,11.6765305 55.0862274,11.5292211 C55.4560042,11.4029558 55.9129642,11.3007411 56.4450821,11.22408 C56.9140674,11.1654568 57.8430189,11.0557263 57.9632716,11.0542232 L58.1090779,11.3052505 C58.0880337,11.4480505 57.8219747,12.5498653 57.6987158,13.05192 Z" id="Shape"></path>
                    <path d="M51.0607705,3.96082105 C50.8022274,3.46026947 50.4144126,3.05592 49.9243832,2.74025684 C49.4223284,2.4276 48.8270779,2.20813895 48.1311158,2.08187368 C47.4471789,1.96011789 46.6309642,1.89397895 45.7035158,1.89247579 L41.3879495,1.89548211 C40.9385053,1.90299789 40.5070989,2.25173053 40.4033811,2.68013053 L37.5007832,15.3156758 C37.3955621,15.7440758 37.6841684,16.0988211 38.1230905,16.0988211 L40.1899326,16.0958147 C40.6288547,16.0988211 41.0782989,15.7470821 41.1820168,15.3141726 L41.8809853,12.2462274 C41.9832,11.8193305 42.4266316,11.4600758 42.8730695,11.4630821 L43.4638105,11.4630821 C45.9906189,11.4630821 47.9492337,10.9429895 49.3591958,9.91332632 C50.7526232,8.87163789 51.4576042,7.50827368 51.4576042,5.81421474 C51.4500884,5.07616421 51.32232,4.45235368 51.0607705,3.96082105 Z M46.60992,8.09300211 C45.9876126,8.54094316 45.1187874,8.76946498 44.0064505,8.76946498 L43.4923705,8.76946498 C43.0489389,8.77393263 42.7618358,8.41317474 42.8610442,7.98327158 L43.4863579,5.30614737 C43.5780505,4.87774737 44.0259916,4.51849263 44.4724295,4.52300211 L45.1413347,4.51849263 C45.9350021,4.52300211 46.5302526,4.65377684 46.9361053,4.91833263 C47.3404547,5.18288842 47.5313558,5.59776 47.5358653,6.14791579 C47.5403747,6.98667789 47.2292211,7.63303579 46.60992,8.09300211 Z" id="Shape"></path>
                    <path d="M68.7574484,2.78084211 C68.8521474,2.34943579 68.5815789,1.9992 68.1381474,2.00513636 L66.2892632,2.00513636 C65.9104674,2.00513636 65.5692505,2.28630316 65.4024,2.63202947 L65.3001853,2.79136421 L65.2069895,3.20022316 L62.6230611,14.9458989 L62.5388842,15.3066568 L62.5418905,15.3156758 C62.4562105,15.7019874 62.6937095,15.9936 63.06048,16.0492168 L63.0920463,16.0928084 L65.0115789,16.0928084 C65.3873684,16.0928084 65.7406105,15.8072084 65.9014484,15.4554695 L66.0006568,15.3051537 L68.7634611,2.78234526 L68.7574484,2.78084211 Z" id="Path"></path>
                    <path d="M37.5579032,5.21896421 C37.0693768,5.22497684 35.0837053,5.21896421 35.0837053,5.21896421 C34.6387705,5.21896421 34.0675705,5.57821895 33.7849768,6.00661895 C33.7849768,6.00661895 30.8297684,11.0782737 30.5426653,11.5878442 L30.1999453,11.5833347 L29.2800126,6.04119158 C29.1777979,5.60527579 28.7223411,5.23249263 28.1556505,5.23249263 L26.3067663,5.23549895 C25.8618316,5.23549895 25.5882568,5.59024421 25.6889684,6.02315368 C25.6889684,6.02315368 27.0929179,14.0124379 27.3740084,15.8928884 C27.5047832,16.9300674 27.3574737,17.1149558 27.3574737,17.1149558 L25.5296337,20.2986442 C25.2590653,20.7315537 25.4048716,21.0847958 25.8483032,21.0847958 L27.9857937,21.0817895 C28.4307284,21.0817895 29.0154568,20.7315537 29.2800126,20.2971411 L37.5022863,6.38992421 C37.5022863,6.39142737 38.2929474,5.20242947 37.5579032,5.21896421 Z" id="Path"></path>
                </g>
            </g>
        </g>
    </g>
</svg>