<svg xmlns="http://www.w3.org/2000/svg" width="35" height="41" viewBox="0 0 35 41">
    <g fill="#202020" stroke="#FFF" stroke-width=".5">
        <path d="M32.744 34.523l-4.17-5.36c1.351-.404 2.518-1.268 3.299-2.442.982-1.697.538-3.768.108-5.769-.26-1.028-.415-2.079-.464-3.138.049-1.06.204-2.112.464-3.14.427-2.003.874-4.073-.108-5.767-1.017-1.757-3.064-2.407-5.044-3.035-.986-.271-1.94-.645-2.849-1.115-.823-.534-1.588-1.154-2.282-1.85C20.23 1.544 18.564 0 16.444 0c-2.12 0-3.786 1.544-5.255 2.906-.694.696-1.458 1.316-2.282 1.851-.908.47-1.862.842-2.847 1.113-1.98.627-4.028 1.278-5.045 3.034-.981 1.697-.537 3.769-.108 5.77.26 1.028.415 2.08.463 3.14-.048 1.06-.204 2.112-.464 3.14-.426 2.003-.873 4.073.109 5.767.781 1.175 1.95 2.039 3.301 2.441l-4.172 5.36c-.232.299-.179.73.12.962.144.111.326.161.506.139l4.899-.612 1.21 4.231c.07.248.274.436.528.485.042.008.086.012.13.012.211 0 .411-.097.541-.264l4.375-5.628c1.077 1.048 2.491 1.68 3.99 1.781 1.5-.102 2.914-.733 3.991-1.781l4.376 5.626c.129.167.329.266.54.266.044 0 .088-.004.131-.012.253-.05.457-.237.528-.485l1.21-4.23 4.898.611c.376.047.718-.219.766-.594.022-.18-.028-.362-.14-.506zm-24.92 3.045l-1-3.499c-.092-.324-.408-.533-.743-.49l-3.836.479 3.438-4.42.38.12c.984.271 1.937.644 2.844 1.113.824.535 1.589 1.155 2.282 1.85l.236.218-3.6 4.629zm8.62-3.31c-1.583 0-2.914-1.233-4.324-2.54-.767-.767-1.615-1.449-2.528-2.034-.993-.52-2.039-.933-3.12-1.233-1.81-.575-3.521-1.117-4.272-2.415-.717-1.24-.347-2.967.046-4.796.282-1.122.448-2.27.495-3.426-.046-1.156-.212-2.304-.494-3.426-.393-1.828-.763-3.556-.046-4.796.753-1.297 2.461-1.84 4.272-2.415 1.08-.3 2.126-.713 3.12-1.233.912-.585 1.76-1.267 2.526-2.033 1.41-1.307 2.742-2.54 4.325-2.54 1.582 0 2.914 1.233 4.324 2.54.767.766 1.614 1.448 2.527 2.033.994.52 2.04.933 3.12 1.233 1.81.575 3.522 1.118 4.272 2.415.717 1.24.347 2.967-.045 4.796-.283 1.122-.449 2.27-.495 3.426.046 1.156.212 2.304.494 3.426.392 1.829.762 3.556.046 4.796-.754 1.298-2.462 1.84-4.273 2.415-1.08.3-2.125.713-3.119 1.233-.912.585-1.76 1.267-2.527 2.033-1.41 1.308-2.742 2.54-4.324 2.54zm10.365-.68c-.334-.042-.65.167-.743.491l-1.003 3.499-3.6-4.628.236-.218c.693-.696 1.458-1.316 2.281-1.85.908-.47 1.863-.843 2.848-1.114l.379-.12 3.44 4.42-3.838-.48z" transform="translate(1 1)"/>
        <path d="M16.444 5.481c-6.811 0-12.333 5.522-12.333 12.333s5.522 12.333 12.333 12.333 12.333-5.522 12.333-12.333c-.008-6.808-5.525-12.325-12.333-12.333zm0 23.296c-6.055 0-10.963-4.909-10.963-10.963 0-6.054 4.908-10.962 10.963-10.962 6.054 0 10.962 4.908 10.962 10.962-.007 6.052-4.91 10.955-10.962 10.963z" transform="translate(1 1)"/>
        <path d="M24.35 14.952c-.259-.354-.67-.564-1.108-.564h-4.195l-1.301-3.992c-.237-.72-1.011-1.11-1.73-.874-.414.136-.738.46-.874.874l-1.298 3.992H9.646c-.757 0-1.371.613-1.371 1.37 0 .438.209.85.564 1.109l3.395 2.466-1.297 3.992c-.234.72.16 1.493.88 1.727.417.136.874.063 1.23-.195l3.397-2.465 3.396 2.466c.478.356 1.133.356 1.612 0 .485-.345.687-.967.497-1.532l-1.297-3.993 3.396-2.466c.612-.446.747-1.303.301-1.915zm-4.907 3.566c-.24.174-.34.484-.248.766l1.45 4.466-3.798-2.76c-.24-.174-.565-.174-.805 0l-3.8 2.76 1.45-4.466c.093-.282-.008-.591-.248-.766l-3.798-2.76h4.695c.297 0 .56-.19.652-.473l1.45-4.466 1.452 4.465c.092.283.355.474.652.474h4.695l-3.799 2.76z" transform="translate(1 1)"/>
    </g>
</svg>
