<svg xmlns="http://www.w3.org/2000/svg" width="34" height="37" viewBox="0 0 34 37">
    <g fill="#202020">
        <path d="M33.47 7.948L17.115.052c-.145-.07-.314-.07-.46 0L.3 7.948c-.182.088-.298.273-.298.475v19.175c0 .203.116.387.298.476l16.356 7.895c.072.035.15.053.23.053.078 0 .156-.018.229-.053l16.355-7.895c.182-.089.298-.273.298-.476V8.423c0-.202-.116-.387-.298-.475zM16.885 1.114l15.142 7.31-4.39 2.118c-.027-.021-.057-.04-.089-.056L12.51 3.226l4.376-2.112zm-5.567 2.709l15.12 7.299-3.097 1.495L8.227 5.32l3.09-1.498zm15.473 8.3v5.526l-2.892 1.396V13.52l2.892-1.396zm5.922 15.144l-15.3 7.386V16.65l3.65-1.762c.262-.127.372-.442.245-.704-.127-.263-.442-.373-.705-.246l-3.718 1.795-1.463-.706c-.262-.127-.578-.017-.705.245-.126.263-.016.578.246.705l1.394.673v18.003l-15.3-7.386V9.264l11.651 5.624c.074.036.152.053.23.053.195 0 .384-.11.475-.298.127-.263.017-.578-.246-.705L1.744 8.423l5.241-2.53 15.85 7.652.008.009v6.332c0 .181.094.35.247.447.086.053.183.08.28.08.08 0 .158-.017.23-.052l3.948-1.906c.182-.088.298-.272.298-.475v-6.367l4.867-2.349v18.003z"/>
        <path d="M5.412 25.22l-2.4-1.158c-.263-.127-.578-.017-.705.246-.126.262-.016.578.246.704l2.4 1.159c.074.036.152.053.23.053.195 0 .384-.11.475-.299.127-.262.017-.578-.246-.704zM7.621 23.783l-4.606-2.224c-.262-.126-.578-.016-.704.246-.127.263-.017.578.245.705l4.606 2.223c.074.036.152.053.23.053.195 0 .384-.11.475-.298.126-.263.016-.579-.246-.705z"/>
    </g>
</svg>
