<svg xmlns="http://www.w3.org/2000/svg" width="26" height="25" viewBox="0 0 26 25">
    <g fill="#FFF" stroke="#2A2A2A" stroke-width=".5">
        <path d="M10.027 17.927c-1.16 0-2.103.944-2.103 2.103 0 1.16.944 2.104 2.103 2.104 1.16 0 2.103-.944 2.103-2.104 0-1.16-.943-2.103-2.103-2.103zm0 3.032c-.512 0-.929-.416-.929-.929 0-.512.417-.928.93-.928.511 0 .928.416.928.928 0 .513-.417.93-.929.93zM17.404 17.927c-1.16 0-2.103.944-2.103 2.103 0 1.16.944 2.104 2.103 2.104 1.16 0 2.103-.944 2.103-2.104 0-1.16-.943-2.103-2.103-2.103zm0 3.032c-.512 0-.929-.416-.929-.929 0-.512.417-.928.93-.928.511 0 .928.416.928.928 0 .513-.417.93-.929.93zM17.922 6.854H9.508c-.324 0-.587.263-.587.588 0 .324.263.587.587.587h8.414c.324 0 .587-.263.587-.587 0-.325-.263-.588-.587-.588zM17.464 9.903H9.966c-.324 0-.587.263-.587.588 0 .324.263.587.587.587h7.498c.324 0 .587-.263.587-.587 0-.325-.263-.588-.587-.588z" transform="translate(1 1.846)"/>
        <path d="M23.65 4.238c-.224-.274-.556-.432-.91-.432H4.45l-.37-1.793c-.076-.374-.331-.688-.682-.84L.821.054C.524-.076.178.061.05.36c-.13.297.007.643.304.772L2.931 2.25l2.84 13.79c.112.544.596.938 1.15.938h14.067c.324 0 .587-.263.587-.587 0-.325-.263-.587-.587-.587H6.922l-.346-1.678h14.52c.555 0 1.04-.394 1.151-.937l1.642-7.972c.072-.347-.016-.704-.24-.979zm-2.553 8.714H6.334L4.692 4.98H22.74l-1.642 7.972z" transform="translate(1 1.846)"/>
    </g>
</svg>
