<?xml version="1.0" encoding="UTF-8"?>
<svg width="24px" height="24px" viewBox="0 0 24 24" version="1.1" xmlns="http://www.w3.org/2000/svg" xmlns:xlink="http://www.w3.org/1999/xlink">
    <title>9BF248A0-39E6-40C5-8A9A-954CB58B27EA</title>
    <defs>
        <polygon id="path-1" points="9.13264375e-05 0.0248759634 23.9004855 0.0248759634 23.9004855 22.7964149 9.13264375e-05 22.7964149"></polygon>
        <linearGradient x1="27.8552827%" y1="30.7007592%" x2="80.8657221%" y2="91.9048701%" id="linearGradient-3">
            <stop stop-color="#FFDD79" offset="0%"></stop>
            <stop stop-color="#F6B83A" offset="100%"></stop>
        </linearGradient>
    </defs>
    <g id="Design" stroke="none" stroke-width="1" fill="none" fill-rule="evenodd">
        <g id="product-page-3-copy-2" transform="translate(-1112.000000, -426.000000)">
            <g id="Group-31-Copy-3" transform="translate(1112.000000, 426.000000)">
                <g id="Group-3" transform="translate(0.000000, 0.389806)">
                    <mask id="mask-2" fill="white">
                        <use xlink:href="#path-1"></use>
                    </mask>
                    <g id="Clip-2"></g>
                    <path d="M12.3298542,0.270028582 L15.5081731,7.3198766 C15.5687046,7.4546214 15.695572,7.54666246 15.8419256,7.56283184 L23.5294275,8.4069562 C23.8855683,8.44592854 24.0290197,8.88747689 23.7636761,9.12877373 L18.0409607,14.3299231 C17.9319211,14.4290123 17.883413,14.5782681 17.9132641,14.7225487 L19.4858396,22.2943773 C19.5588091,22.645543 19.1831821,22.9183494 18.8718179,22.7404863 L12.1569662,18.9050273 C12.028855,18.8320578 11.8717218,18.8320578 11.7436106,18.9050273 L5.02875891,22.7404863 C4.71739477,22.9183494 4.34176772,22.645543 4.41473722,22.2943773 L5.9873127,14.7225487 C6.01716386,14.5782681 5.96865573,14.4290123 5.85961609,14.3299231 L0.136900718,9.12877373 C-0.128442891,8.88747689 0.0150084979,8.44592854 0.371149373,8.4069562 L8.05865125,7.56283184 C8.20500483,7.54666246 8.33187225,7.4546214 8.39240376,7.3198766 L11.5707227,0.270028582 C11.7183201,-0.0570903359 12.1822568,-0.0570903359 12.3298542,0.270028582" id="Fill-1" fill="url(#linearGradient-3)" mask="url(#mask-2)"></path>
                </g>
            </g>
        </g>
    </g>
</svg>