<svg xmlns="http://www.w3.org/2000/svg" width="45" height="29" viewBox="0 0 45 29">
    <g fill="#202020" stroke="#FFF" stroke-width=".5">
        <path d="M40.547 11.697l-1.129-4.516c.31-.066.54-.34.54-.668v-.728c0-1.58-1.286-2.867-2.866-2.867h-5.143V1.416c0-.778-.633-1.41-1.411-1.41H4.324c-.778 0-1.411.632-1.411 1.41v12.38c0 .376.305.682.682.682.377 0 .683-.306.683-.683V1.416c0-.025.02-.045.046-.045h26.214c.025 0 .045.02.045.045v12.38c0 .376.306.682.683.682.377 0 .683-.306.683-.683v-.774H40.005c.991.001 1.833.652 2.122 1.548h-2.123c-.377 0-.683.306-.683.683v1.456c0 1.18.96 2.139 2.14 2.139h.773v3.004H40.45c-.586-1.694-2.196-2.913-4.086-2.913-1.89 0-3.5 1.22-4.086 2.913h-.328v-5.143c0-.377-.306-.683-.683-.683-.377 0-.683.306-.683.683v5.142H16.42c-.586-1.693-2.195-2.912-4.086-2.912-1.89 0-3.5 1.22-4.085 2.912H4.324c-.026 0-.046-.02-.046-.045v-1.502h2.958c.377 0 .683-.306.683-.683 0-.377-.306-.682-.683-.682h-3.64s0 0 0 0H.682c-.377 0-.683.305-.683.682 0 .377.306.683.683.683h2.23v1.502c0 .778.633 1.41 1.41 1.41h3.688l-.001.046c0 2.384 1.94 4.324 4.323 4.324 2.384 0 4.324-1.94 4.324-4.324l-.001-.045H32.04l-.001.045c0 2.384 1.94 4.324 4.323 4.324 2.384 0 4.324-1.94 4.324-4.324l-.001-.045h2.23c.378 0 .684-.306.684-.683v-7.282c0-1.797-1.327-3.291-3.053-3.554zM31.95 4.283h5.143c.828 0 1.501.674 1.501 1.502v.046H31.95V4.283zm0 7.373v-4.46h6.066l1.115 4.46h-7.181zM12.333 26.22c-1.63 0-2.958-1.327-2.958-2.959 0-1.63 1.327-2.958 2.958-2.958 1.632 0 2.959 1.327 2.959 2.958 0 1.632-1.327 2.959-2.959 2.959zm24.03 0c-1.63 0-2.958-1.327-2.958-2.959 0-1.63 1.327-2.958 2.958-2.958 1.632 0 2.959 1.327 2.959 2.958 0 1.632-1.327 2.959-2.959 2.959zm5.871-8.738h-.773c-.427 0-.774-.348-.774-.774v-.774h1.547v1.548h0z" transform="translate(1 1)"/>
        <path d="M12.333 21.85c-.777 0-1.41.634-1.41 1.411 0 .778.633 1.411 1.41 1.411.778 0 1.411-.633 1.411-1.41 0-.778-.633-1.411-1.41-1.411zM36.363 21.85c-.778 0-1.41.634-1.41 1.411 0 .778.632 1.411 1.41 1.411.778 0 1.411-.633 1.411-1.41 0-.778-.633-1.411-1.41-1.411zM28.353 18.938H18.16c-.377 0-.683.306-.683.683 0 .377.306.682.683.682h10.194c.377 0 .683-.305.683-.682 0-.377-.306-.683-.683-.683zM10.877 16.025H2.14c-.377 0-.683.306-.683.683 0 .377.306.683.683.683h8.738c.377 0 .683-.306.683-.683 0-.377-.306-.683-.683-.683zM17.43 3.646c-3.588 0-6.507 2.92-6.507 6.508 0 3.589 2.92 6.508 6.508 6.508s6.508-2.92 6.508-6.508-2.92-6.508-6.508-6.508zm0 11.651c-2.835 0-5.142-2.307-5.142-5.143 0-2.835 2.307-5.142 5.143-5.142 2.835 0 5.142 2.307 5.142 5.142 0 2.836-2.307 5.143-5.142 5.143z" transform="translate(1 1)"/>
        <path d="M20.098 11.856l-1.985-1.984v-2.63c0-.377-.305-.683-.682-.683-.377 0-.683.306-.683.683v2.912c0 .181.072.355.2.483l2.184 2.185c.134.133.308.2.483.2s.35-.067.483-.2c.267-.267.267-.7 0-.966z" transform="translate(1 1)"/>
    </g>
</svg>
