<svg xmlns="http://www.w3.org/2000/svg" width="29" height="30" viewBox="0 0 29 30">
    <g fill="#FFF" stroke="#242424" stroke-width=".6">
        <path d="M19.564 16.251H7.46c-4.063 0-7.369 3.306-7.369 7.37v4.256h26.842V23.62c0-4.063-3.306-7.369-7.37-7.369zm5.77 10.027H1.69V23.62c0-3.181 2.588-5.77 5.77-5.77h12.103c3.181 0 5.77 2.589 5.77 5.77v2.658h0zM13.512 15.494c4.272 0 7.747-3.475 7.747-7.747S17.784 0 13.512 0 5.765 3.475 5.765 7.747s3.475 7.747 7.747 7.747zm0-13.895c3.39 0 6.148 2.758 6.148 6.148 0 3.39-2.758 6.148-6.148 6.148-3.39 0-6.148-2.758-6.148-6.148 0-3.39 2.758-6.148 6.148-6.148z" transform="translate(1 1)"/>
    </g>
</svg>
