<svg xmlns="http://www.w3.org/2000/svg" width="66" height="66" viewBox="0 0 66 66">
    <defs>
        <linearGradient id="prefix__a" x1="8.743%" x2="80.866%" y1="0%" y2="96.162%">
            <stop offset="0%" stop-color="#FFC0E9"/>
            <stop offset="100%" stop-color="#DE91C1"/>
        </linearGradient>
    </defs>
    <g fill="none" fill-rule="evenodd">
        <rect width="66" height="66" fill="url(#prefix__a)" rx="4"/>
        <path stroke="#FFF" stroke-linecap="round" stroke-linejoin="round" stroke-width="1.5" d="M22.852 12.63c1.2.597 6.101 3.4 6.806 5.302.705 1.902.272 2.638-.793 3.293-.184.113-.366.212-.548.295l.22.106c.325.815 1.037 2.22 2.137 4.219 1.45 2.633 4.114 6.383 8.4 11.283 1.52 1.736 4.355 4.698 8.508 8.884l-.578.567c.222.066.436.186.614.366l.013.015h0l.565.59c.516.539.507 1.391-.02 1.919l-3.973 3.972c-.508.508-1.322.538-1.866.07l-.653-.563c-.228-.197-.376-.452-.44-.725l-.747.733s-16.413-17.8-20.648-25.34c-4.234-7.54-3.84-12.142-3.84-12.142h0c.063-1.194.55-2.142 1.46-2.844 1.367-1.053 4.183-.597 5.383 0zm14.57 36.417l6.533-6.462M40.5 52.5l6.354-6.046m-18.89-24.79c-.089.099-.237.196-.446.29-.208.094-.437.134-.687.12l1.133-.41z"/>
    </g>
</svg>
