<svg xmlns="http://www.w3.org/2000/svg" width="66" height="66" viewBox="0 0 66 66">
    <defs>
        <linearGradient id="prefix__a" x1="8.743%" x2="80.866%" y1="0%" y2="96.162%">
            <stop offset="0%" stop-color="#FFC0E9"/>
            <stop offset="100%" stop-color="#DE91C1"/>
        </linearGradient>
    </defs>
    <g fill="none" fill-rule="evenodd">
        <rect width="66" height="66" fill="url(#prefix__a)" rx="4"/>
        <g stroke="#FFF" stroke-width="1.4" transform="translate(8 12)">
            <path d="M12.051 8.725L12.925 10.098M8.808 11.845L9.868 13.03M38.18 38.369c.764-.763.534-2.14 0-2.763-.532-.623-.423-.47-1.592.73-1.17 1.202-1.811 1.446-1.17 2.033.641.586 2 .762 2.763 0z"/>
            <path stroke-linecap="round" d="M38.684 38.733c.696.355 4.257 3.94 7.847 1.364 2.578-1.85 1.144-7.122-2.186-12.828-3.329-5.705-6.465-8.796-6.465-12.289 0-3.493 3.434-4.53 5.892-4.201 1.639.22 3.162.916 4.57 2.09"/>
            <rect width="11.721" height="5.86" x="13.515" y="16.156" rx="2.93" transform="rotate(45 19.376 19.086)"/>
            <rect width="5.86" height="5.86" x="14.373" y="14.084" rx="2.93" transform="rotate(45 17.304 17.014)"/>
            <path d="M5.797.7c-1.59 0-2.85.499-3.717 1.38C1.164 3.01.7 4.35.7 5.892c0 1.721.569 3.708 1.649 5.157.835 1.122 1.988 1.924 3.448 1.924 1.76 0 2.913-1.354 4.469-2.996.236-.248.482-.493.727-.736.943-.938 1.981-1.837 1.981-2.938 0-1.45-.888-2.771-2.13-3.765C9.443 1.417 7.567.7 5.797.7zM17.413 8.92c-.202-.209-.462-.335-.734-.37-.272-.037-.556.015-.806.163l-.54.33c-1.218.763-2.341 1.613-3.362 2.545-1.202 1.097-2.3 2.459-3.294 4.082-.15.244-.207.522-.178.792.03.269.146.529.345.734l.475.491c6.905 7.132 12.016 12.097 15.335 14.893 2.788 2.348 5.286 4.119 7.462 4.79.864.265 1.67.353 2.416.202.681-.138 1.305-.48 1.873-1.043.536-.53.824-1.166.913-1.877.105-.842-.06-1.78-.41-2.774-.883-2.513-2.939-5.355-5.314-7.99-2.825-3.135-7.552-8.124-14.18-14.969z"/>
        </g>
    </g>
</svg>
