<?xml version="1.0" encoding="UTF-8"?>
<svg width="27px" height="24px" viewBox="0 0 27 24" version="1.1" xmlns="http://www.w3.org/2000/svg" xmlns:xlink="http://www.w3.org/1999/xlink">
    <title>0DC81ABE-ED3E-4D3F-9130-8F603E1C1022</title>
    <g id="Design" stroke="none" stroke-width="1" fill="none" fill-rule="evenodd">
        <g id="product-page-3-copy-2" transform="translate(-1112.000000, -741.000000)" fill="#D8D8D8" fill-rule="nonzero">
            <g id="Group-23" transform="translate(1112.000000, 741.000000)">
                <path d="M26.6666667,7.27395412 C26.6666667,3.25659457 23.4424895,0 19.4653207,0 C16.8683029,0 14.6002894,1.39316864 13.3332522,3.47521336 C12.0663773,1.39316864 9.79738959,0 7.20042594,0 C3.22325707,0 0,3.25659457 0,7.27395412 C0,9.46118077 0.959519185,11.4179803 2.47178074,12.7505217 L12.6761095,23.0584061 C12.8503806,23.2344383 13.0867289,23.3333333 13.3332522,23.3333333 C13.5797754,23.3333333 13.8161237,23.2344383 13.9903948,23.0584061 L24.1947236,12.7505217 C25.7070392,11.4179803 26.6666667,9.46118077 26.6666667,7.27395412 Z" id="Path"></path>
            </g>
        </g>
    </g>
</svg>